<?xml version="1.0" encoding="utf-8"?>
<!-- Generator: Adobe Illustrator 23.0.6, SVG Export Plug-In . SVG Version: 6.00 Build 0)  -->
<svg version="1.1" id="katman_1" xmlns="http://www.w3.org/2000/svg" xmlns:xlink="http://www.w3.org/1999/xlink" x="0px" y="0px"
	 viewBox="0 0 589.8 146.8" style="enable-background:new 0 0 589.8 146.8;" xml:space="preserve">
<style type="text/css">
	.st0{fill:#FFFFFF;}
	.st1{fill:none;}
	.st2{fill:#FFAE00;}
	.st3{fill:#FF9D00;}
</style>
<path class="st0" d="M544.2,32.4c-9.4,0-16.9,2.1-22.4,6.3c-5.5-4.2-13-6.3-22.4-6.3c-22,0-33.5,11.6-33.5,33.5v44.8v3.7h3.7h14.9
	h3.7v-3.7V66c0-7.9,3.4-11.3,11.3-11.3s11.3,3.4,11.3,11.3v44.8v3.7h3.7h14.9h3.7v-3.7V66c0-7.9,3.4-11.3,11.3-11.3
	s11.3,3.4,11.3,11.3v44.8v3.7h3.7h14.9h3.7v-3.7V66C577.8,44,566.2,32.4,544.2,32.4z"/>
<path class="st1" d="M164.2,54.7h-14.9c-7.9,0-11.3,3.4-11.3,11.3v14.9c0,7.9,3.4,11.3,11.3,11.3h26.2V66
	C175.5,58.1,172.1,54.7,164.2,54.7z"/>
<path class="st0" d="M69.9,83c-0.6,6.4-4,9.2-11.2,9.2H43.8c-7.9,0-11.3-3.4-11.3-11.3V66c0-7.9,3.4-11.3,11.3-11.3h14.9
	c7.3,0,10.7,2.9,11.2,9.6l10.8-6.2l9.8-5.6c-4.1-13.2-14.8-20-31.7-20h-15c-22,0-33.5,11.6-33.5,33.5v74.7v3.7H14h14.9h3.7v-3.7
	v-27.4c3.4,0.8,7.2,1.2,11.3,1.2h14.9c16.7,0,27.5-6.8,31.6-19.7l-9.6-5.6L69.9,83z"/>
<path class="st0" d="M164.2,32.4h-14.9c-21.9,0-33.6,11.6-33.6,33.5v14.9c0,22,11.6,33.5,33.6,33.5h44.8h3.7v-3.7V66
	C197.8,44,186.2,32.4,164.2,32.4z M175.5,92.2h-26.2c-7.9,0-11.3-3.4-11.3-11.3V66c0-7.9,3.4-11.3,11.3-11.3h14.9
	c7.9,0,11.3,3.4,11.3,11.3V92.2z"/>
<path class="st0" d="M258.7,32.4c-21.9,0-33.6,11.6-33.6,33.5v44.8v3.7h3.7h14.9h3.7v-3.7V66c0-7.9,3.4-11.3,11.3-11.3h14.9h3.7V51
	V36.1v-3.7h-3.7L258.7,32.4L258.7,32.4z"/>
<path class="st0" d="M320.1,32.4V6.2V2.6h-3.7h-14.9h-3.7v3.7V81c0,22,11.6,33.5,33.5,33.5h7.5h3.7v-3.7V95.9v-3.7h-3.7h-7.5
	c-7.9,0-11.3-3.4-11.3-11.3V54.7h18.7h3.7V51V36.1v-3.7h-3.7L320.1,32.4L320.1,32.4z"/>
<polygon class="st0" points="386.3,62.7 386.3,36.1 386.3,32.4 382.6,32.4 367.6,32.4 364,32.4 364,36.1 364,49.8 378.3,58.1 "/>
<path class="st0" d="M442.3,32.4h-14.9h-3.7v3.7v44.8c0,7.9-3.4,11.3-11.3,11.3h-14.9c-6.6,0-10-2.4-11-7.8l-8.3,4.8l-11.9,6.9
	c4.4,12.1,15,18.4,31.1,18.4h14.9c22,0,33.5-11.6,33.5-33.6V36.1v-3.7L442.3,32.4L442.3,32.4z"/>
<polygon class="st2" points="107.6,58.5 107.6,42.5 90.4,52.5 80.7,58.1 69.9,64.3 53.7,73.7 69.9,83 80.7,89.2 90.3,94.8 
	107.6,104.8 107.6,88.8 92.3,79.9 81.4,73.7 92.3,67.4 "/>
<polygon class="st2" points="386.3,62.7 378.3,58.1 364,49.8 351.3,42.5 351.3,58.5 364,65.8 377.5,73.7 364,81.5 351.3,88.8 
	351.3,104.8 366.4,96.1 378.3,89.2 386.5,84.4 405.2,73.7 "/>
<path class="st3" d="M90.4,52.5l-9.8,5.6l-10.8,6.2c0,0.5,0.1,1.1,0.1,1.7v14.9c0,0.7,0,1.4-0.1,2.1l10.8,6.2l9.6,5.6
	c1.3-4,1.9-8.7,1.9-13.9v-1l-10.9-6.3l10.9-6.3V66C92.3,60.9,91.6,56.4,90.4,52.5z"/>
<path class="st3" d="M386.5,84.4c-0.2-1.1-0.3-2.2-0.3-3.5V62.7l-8-4.6L364,49.9v16l13.6,7.8L364,81.5c0,5.5,0.9,10.4,2.4,14.6
	l11.9-6.9L386.5,84.4z"/>
</svg>
