<svg xmlns="http://www.w3.org/2000/svg" xmlns:xlink="http://www.w3.org/1999/xlink" viewBox="0 0 462.38 347.72"><defs><style>.cls-1{isolation:isolate;}.cls-2{fill:url(#radial-gradient);}.cls-3{fill:url(#radial-gradient-2);}.cls-4{fill:url(#radial-gradient-3);}.cls-5{fill:url(#radial-gradient-4);}.cls-6{mix-blend-mode:overlay;}.cls-7{fill:url(#radial-gradient-5);}.cls-8{fill:#fff;}</style><radialGradient id="radial-gradient" cx="125.7" cy="226.02" fx="252.82159636697935" fy="394.1092897912829" r="210.75" gradientUnits="userSpaceOnUse"><stop offset="0" stop-color="#0053a5"/><stop offset="0.33" stop-color="#14489d"/><stop offset="0.53" stop-color="#214197"/><stop offset="0.7" stop-color="#213783"/><stop offset="1" stop-color="#202159"/></radialGradient><radialGradient id="radial-gradient-2" cx="677.34" cy="2185.88" fx="805.2606333066524" fy="2355.0268957520398" r="212.07" gradientTransform="matrix(-0.56, -0.83, 0.83, -0.56, -1043.47, 1951.72)" xlink:href="#radial-gradient"/><radialGradient id="radial-gradient-3" cx="-1171.37" cy="1678.75" fx="-1048.4217243457633" fy="1841.3190720852072" r="203.83" gradientTransform="translate(1162.39 1789.84) rotate(117.09)" xlink:href="#radial-gradient"/><radialGradient id="radial-gradient-4" cx="300.26" cy="73.11" r="186.66" gradientUnits="userSpaceOnUse"><stop offset="0" stop-color="#006eb6"/><stop offset="0.26" stop-color="#0e5aa8"/><stop offset="0.53" stop-color="#214197"/><stop offset="0.64" stop-color="#1a3b83"/><stop offset="0.88" stop-color="#092c51"/><stop offset="1" stop-color="#002435"/></radialGradient><radialGradient id="radial-gradient-5" cx="238.88" cy="122.52" r="113.02" gradientUnits="userSpaceOnUse"><stop offset="0" stop-color="#2f75ba"/><stop offset="0.18" stop-color="#4d94cb"/><stop offset="0.39" stop-color="#69b0dc"/><stop offset="0.6" stop-color="#7ec5e8"/><stop offset="0.8" stop-color="#8ad2ef"/><stop offset="1" stop-color="#8ed6f1"/></radialGradient></defs><title>RobomotivBeyazLogo</title><g class="cls-1"><g id="katman_1" data-name="katman 1"><path class="cls-2" d="M260,61.17l-2,8.37s-2.8,4.9-12.32,1.06c-10.73-4.32-45.4-6-62.48,5.74-14.79,10.17-12.92,31.52-12.92,31.52s-25.76,42.6,12.58,88.62c0,0,11.67,8.67,5.34,21.67l-4.34,8.34s-32-16-40.35-58.69,1.34-83.7,25-105.71S250.41,52.76,260,61.17Z" transform="translate(-7.7 -11.28)"/><path class="cls-3" d="M171.77,144l8.5-2.46s5.62-.44,7.8,9.6c2.45,11.3,20.54,40.93,39.85,48.46,16.72,6.52,29.22-6.17,29.22-6.17S311,190,327.49,132.41c0,0,4-15.07,14.94-16.59l9.33-1.09s4.74,35.47-25.89,66.35-70,45.92-101.49,38.7S170.16,162.37,171.77,144Z" transform="translate(-7.7 -11.28)"/><path class="cls-4" d="M283.94,170.66l-6.32-5.4s-3-4.56,4.51-11.07c8.44-7.32,25.16-36.42,22.57-56.29-2.24-17.2-17.29-18.75-17.29-18.75s-25.32-46.08-86-34.43c0,0-14.63,3.62-21-4.95l-5.26-7.4s27.87-20.49,68.26-8.88,72.71,38.15,81.23,68.21S295.4,166.12,283.94,170.66Z" transform="translate(-7.7 -11.28)"/><path class="cls-5" d="M173.67,64.65s39.53-20.94,86.42-3.35A89.46,89.46,0,0,0,137,90.35c-28.88,46.72-4.66,105.5,37.37,131.48a80.86,80.86,0,0,0,9.13,4.88s-66.8-45.61-27.31-125.24c0,0,76.43,33.35,63.93,114.33,0,0-42.22-19.19-48.3-71.76a89.47,89.47,0,0,0,89.47,89.47c54.91,0,93.08-48.59,92.17-100.93-.06-3.55-1.23-7-1.66-10.35,0,0-6.36,82.82-94.86,91.1,0,0-6.1-57.34,35.63-94.23A107.6,107.6,0,0,1,325,102.93s1.31,34.12-40.54,67.32c43.54-23.35,60.05-68.43,36.69-112C295.18,9.88,234.57.1,188.63,24.75a80.67,80.67,0,0,0-8.8,5.46S255.23-.41,304.29,70C304.29,70,233.8,119.19,173.67,64.65Z" transform="translate(-7.7 -11.28)"/><g class="cls-6"><path class="cls-7" d="M261.24,233.75A89.82,89.82,0,0,1,171.52,144l.5,0a92.67,92.67,0,0,0,26.34,55.43,85.63,85.63,0,0,0,21.51,16c6.3-41.55-11.33-70.24-27.26-87a128.21,128.21,0,0,0-36.35-26.64c-20.22,40.93-11.74,72.63-1,92a103.83,103.83,0,0,0,28.38,32.67l-.24.43a79.63,79.63,0,0,1-9.16-4.9,108.52,108.52,0,0,1-45.38-58.1c-8.35-25.77-5.53-51.95,7.93-73.72A89.67,89.67,0,0,1,260.22,61.09l-.22.45a109.69,109.69,0,0,0-38.76-7A112.65,112.65,0,0,0,174.1,64.7c18.7,16.86,40.29,25.4,64.18,25.4,34.72,0,63-18.38,65.66-20.18-26.6-38-61.3-46-85.73-46A116.5,116.5,0,0,0,179,30.59l-1.94.78,1.7-1.21a123.16,123.16,0,0,1,11-6.67,104.77,104.77,0,0,1,49.38-12.21c35.74,0,66.49,17.52,82.23,46.88,11.37,21.2,13.71,43.24,6.76,63.76-6.73,19.86-22.2,37.1-43.56,48.56l-.27-.42c39.1-31,40.43-63.19,40.45-66.79a108,108,0,0,0-32.08,16c-21.47,19-30,43.53-33.35,60.78a125.83,125.83,0,0,0-2.19,33c45.45-4.33,68.75-29.39,80.31-49.68a116.74,116.74,0,0,0,14.34-43.52l.19-2.41.31,2.4c.42,3.25,1.4,12.7,1.4,16.27a102.58,102.58,0,0,1-25.56,67.39A88.56,88.56,0,0,1,261.24,233.75Zm-89.11-85.26a89.34,89.34,0,0,0,89.11,84.77c56.78,0,91.92-50.43,91.92-97.15,0-3-.67-9.94-1.13-14.08a120,120,0,0,1-14.17,41.59,96.89,96.89,0,0,1-28.62,31.82c-14.49,10.14-32.09,16.24-52.33,18.14l-.24,0,0-.25A125.35,125.35,0,0,1,258.81,180c3.38-17.32,11.93-42,33.55-61.09a108.53,108.53,0,0,1,32.56-16.22l.31-.1v.33c0,.09.27,8.73-4.59,21.31-4.33,11.2-13.7,27.83-33.83,44.43,20-11.38,34.4-27.94,40.82-46.9,6.9-20.38,4.58-42.29-6.72-63.36-15.66-29.2-46.24-46.62-81.79-46.62A104.28,104.28,0,0,0,190,23.93c-2.68,1.44-6.53,3.7-9.3,5.52a120.16,120.16,0,0,1,37.53-6c24.6,0,59.54,8.06,86.28,46.43l.15.21-.21.14c-.29.2-29.67,20.42-66.15,20.42-24.14,0-45.93-8.68-64.78-25.78l-.27-.23.32-.17c.19-.11,20-10.42,47.69-10.42a110.54,110.54,0,0,1,36.49,6.17,89.18,89.18,0,0,0-120.57,30.3c-13.38,21.65-16.17,47.68-7.88,73.31a108.06,108.06,0,0,0,45.17,57.83c2.25,1.39,4.55,2.66,6.86,3.8a106.38,106.38,0,0,1-26.54-31.34,89.67,89.67,0,0,1-11.27-39.44c-.79-17.15,3.39-35.08,12.42-53.28l.1-.21.22.09A128.11,128.11,0,0,1,193,128.09a105,105,0,0,1,22.61,35.59c6,16.1,7.59,33.64,4.72,52.16l0,.32L220,216c-.1,0-10.72-4.94-21.94-16.21A92.83,92.83,0,0,1,172.13,148.49Z" transform="translate(-7.7 -11.28)"/></g><path class="cls-8" d="M50.5,307.2a15.26,15.26,0,0,1-1.39,6.5,15.61,15.61,0,0,1-3.81,5.15,15.89,15.89,0,0,1-5.5,3.23l10.7,35.21a1.51,1.51,0,0,1-.32,1.11,1.67,1.67,0,0,1-1,.6H35.11a1.76,1.76,0,0,1-.91-.41,1.64,1.64,0,0,1-.55-.92L23.46,323v34.45a1.5,1.5,0,0,1-.44,1.08,1.49,1.49,0,0,1-1.08.44H9.21a1.46,1.46,0,0,1-1.07-.44,1.54,1.54,0,0,1-.44-1.14V269.65a1.54,1.54,0,0,1,.44-1.1,1.47,1.47,0,0,1,1.14-.48H21.94a.43.43,0,0,1,.2.07H35.81a15,15,0,0,1,7.47,2.4,16.32,16.32,0,0,1,5.26,5.57,15,15,0,0,1,2,7.6Zm-27-23.3v23.18h8.62a3.29,3.29,0,0,0,1.8-.95,3.25,3.25,0,0,0,.86-1.9V286.74a3.39,3.39,0,0,0-.89-2,2.84,2.84,0,0,0-2-.85Z" transform="translate(-7.7 -11.28)"/><path class="cls-8" d="M89.25,268.07a15.51,15.51,0,0,1,10.67,4.66,15.69,15.69,0,0,1,4.53,10.79v60.09A15.71,15.71,0,0,1,89.25,359H75.51a15.7,15.7,0,0,1-10.57-4.46,15.28,15.28,0,0,1-4.62-10.42V283a15.29,15.29,0,0,1,4.62-10.38,15.6,15.6,0,0,1,10.57-4.5H89.25Zm-.57,72.31v-53.7a3.06,3.06,0,0,0-1-2,3,3,0,0,0-2.06-.79H79.12a2.86,2.86,0,0,0-2.18.89,3,3,0,0,0-.86,2.15V340.2a2.87,2.87,0,0,0,.86,2.12,3.15,3.15,0,0,0,2.18.91h6.52a3.21,3.21,0,0,0,2.06-.85A3,3,0,0,0,88.68,340.38Z" transform="translate(-7.7 -11.28)"/><path class="cls-8" d="M143.58,268.14a15,15,0,0,1,7.41,2.4,16.19,16.19,0,0,1,5.25,5.57,15,15,0,0,1,2,7.6V306a7.29,7.29,0,0,1-2.18,5.32,7.21,7.21,0,0,1-5.35,2.21,7.51,7.51,0,0,1,7.53,7.54v22.29a15.16,15.16,0,0,1-2,7.63,15.85,15.85,0,0,1-5.25,5.57,15.15,15.15,0,0,1-7.41,2.38l-1,.06h-27a1.5,1.5,0,0,1-1.08-.44,1.58,1.58,0,0,1-.44-1.14V269.65a1.58,1.58,0,0,1,.44-1.1,1.43,1.43,0,0,1,1.08-.48h27Zm-1.14,34.63v-16a2.94,2.94,0,0,0-.86-2,2.89,2.89,0,0,0-1.93-.85h-9.81v21.78l9.75-.06a3,3,0,0,0,2-.86A2.84,2.84,0,0,0,142.44,302.77Zm0,37.61V324.3a3.23,3.23,0,0,0-1-2,2.86,2.86,0,0,0-2.06-.82h-9.56v21.78h9.94a3.25,3.25,0,0,0,1.83-1A2.78,2.78,0,0,0,142.44,340.38Z" transform="translate(-7.7 -11.28)"/><path class="cls-8" d="M196.89,268.07a15.69,15.69,0,0,1,15.2,15.45v60.09A15.69,15.69,0,0,1,196.89,359H183.15a15.74,15.74,0,0,1-10.57-4.46A15.33,15.33,0,0,1,168,344.12V283a15.33,15.33,0,0,1,4.62-10.38,15.64,15.64,0,0,1,10.57-4.5h13.74Zm-.56,72.31v-53.7a3.16,3.16,0,0,0-1-2,3,3,0,0,0-2.06-.79h-6.52a2.84,2.84,0,0,0-2.18.89,3,3,0,0,0-.87,2.15V340.2a2.87,2.87,0,0,0,.87,2.12,3.13,3.13,0,0,0,2.18.91h6.52a3.21,3.21,0,0,0,2.06-.85A3.13,3.13,0,0,0,196.33,340.38Z" transform="translate(-7.7 -11.28)"/><path class="cls-8" d="M279.91,269.65v87.77a1.58,1.58,0,0,1-.44,1.14,1.49,1.49,0,0,1-1.08.44H265.66a1.5,1.5,0,0,1-1.51-1.52V303.6l-11.59,22.28a1.52,1.52,0,0,1-.73.73,4.85,4.85,0,0,1-2,0,1.48,1.48,0,0,1-.73-.73L237.55,303.6v53.88A1.5,1.5,0,0,1,236,359H223.3a1.46,1.46,0,0,1-1.07-.44,1.54,1.54,0,0,1-.45-1.14V269.65a1.55,1.55,0,0,1,.45-1.1,1.39,1.39,0,0,1,1.07-.48H236a1.59,1.59,0,0,1,1.39.82L250.85,295l13.48-26.09a1.44,1.44,0,0,1,1.33-.82h12.73a1.41,1.41,0,0,1,1.08.48A1.58,1.58,0,0,1,279.91,269.65Z" transform="translate(-7.7 -11.28)"/><path class="cls-8" d="M318.54,268.07a15.69,15.69,0,0,1,15.19,15.45v60.09A15.69,15.69,0,0,1,318.54,359H304.79a15.74,15.74,0,0,1-10.57-4.46,15.27,15.27,0,0,1-4.61-10.42V283a15.28,15.28,0,0,1,4.61-10.38,15.64,15.64,0,0,1,10.57-4.5h13.75ZM318,340.38v-53.7a3.16,3.16,0,0,0-1-2,3,3,0,0,0-2.06-.79h-6.52a2.88,2.88,0,0,0-2.19.89,3,3,0,0,0-.85,2.15V340.2a2.9,2.9,0,0,0,.85,2.12,3.17,3.17,0,0,0,2.19.91h6.52a3.21,3.21,0,0,0,2.06-.85A3.13,3.13,0,0,0,318,340.38Z" transform="translate(-7.7 -11.28)"/><path class="cls-8" d="M386.67,268.07a1.55,1.55,0,0,1,1.08.41,1.37,1.37,0,0,1,.44,1v12.28a1.35,1.35,0,0,1-.44,1.05,1.63,1.63,0,0,1-1.14.41H373.75v74.15a1.77,1.77,0,0,1-.47,1.11,1.8,1.8,0,0,1-1.11.47H359.51a1.87,1.87,0,0,1-1.11-.51,1.38,1.38,0,0,1-.47-1.07V283.27H344.88a1.46,1.46,0,0,1-1.08-.45,1.4,1.4,0,0,1-.44-1V269.53a1.45,1.45,0,0,1,.41-1,1.38,1.38,0,0,1,1.05-.45Z" transform="translate(-7.7 -11.28)"/><path class="cls-8" d="M413.83,269.59v87.89a1.84,1.84,0,0,1-.47,1.08,1.45,1.45,0,0,1-1.11.44H399.59a1.49,1.49,0,0,1-1.58-1.58V269.65a1.62,1.62,0,0,1,1.58-1.58h12.66a1.47,1.47,0,0,1,1.08.45A1.7,1.7,0,0,1,413.83,269.59Z" transform="translate(-7.7 -11.28)"/><path class="cls-8" d="M458.35,357.8A1.55,1.55,0,0,1,457,359H436.63a1.68,1.68,0,0,1-.95-.41,1.77,1.77,0,0,1-.51-.85v-.2l-11.65-87.7a1.72,1.72,0,0,1,.29-1.14,1.5,1.5,0,0,1,1-.63h13.8a1.62,1.62,0,0,1,1,.41,1.68,1.68,0,0,1,.51.92l6.71,64,6.78-64a1.31,1.31,0,0,1,.48-.92,1.68,1.68,0,0,1,.91-.41h13.81a1.75,1.75,0,0,1,1,.6,1.5,1.5,0,0,1,.31,1.11Z" transform="translate(-7.7 -11.28)"/></g></g></svg>