<svg xmlns="http://www.w3.org/2000/svg" xmlns:xlink="http://www.w3.org/1999/xlink" viewBox="0 0 464.72 349.48"><defs><style>.cls-1{isolation:isolate;}.cls-2{fill:url(#radial-gradient);}.cls-3{fill:url(#radial-gradient-2);}.cls-4{fill:url(#radial-gradient-3);}.cls-5{fill:url(#radial-gradient-4);}.cls-6{mix-blend-mode:overlay;}.cls-7{fill:url(#radial-gradient-5);}</style><radialGradient id="radial-gradient" cx="126.6" cy="226.32" fx="254.3673229118254" fy="395.26416713907395" r="211.82" gradientUnits="userSpaceOnUse"><stop offset="0" stop-color="#0053a5"/><stop offset="0.33" stop-color="#14489d"/><stop offset="0.53" stop-color="#214197"/><stop offset="0.7" stop-color="#213783"/><stop offset="1" stop-color="#202159"/></radialGradient><radialGradient id="radial-gradient-2" cx="676.11" cy="2187.72" fx="804.6794592694997" fy="2357.7219657524256" r="213.15" gradientTransform="matrix(-0.56, -0.83, 0.83, -0.56, -1043.47, 1951.72)" xlink:href="#radial-gradient"/><radialGradient id="radial-gradient-3" cx="-1172.78" cy="1678.03" fx="-1049.212703814782" fy="1841.4238671804526" r="204.86" gradientTransform="translate(1162.39 1789.84) rotate(117.09)" xlink:href="#radial-gradient"/><radialGradient id="radial-gradient-4" cx="302.04" cy="72.64" r="187.61" gradientUnits="userSpaceOnUse"><stop offset="0" stop-color="#006eb6"/><stop offset="0.26" stop-color="#0e5aa8"/><stop offset="0.53" stop-color="#214197"/><stop offset="0.64" stop-color="#1a3b83"/><stop offset="0.88" stop-color="#092c51"/><stop offset="1" stop-color="#002435"/></radialGradient><radialGradient id="radial-gradient-5" cx="240.36" cy="122.29" r="113.6" gradientUnits="userSpaceOnUse"><stop offset="0" stop-color="#2f75ba"/><stop offset="0.18" stop-color="#4d94cb"/><stop offset="0.39" stop-color="#69b0dc"/><stop offset="0.6" stop-color="#7ec5e8"/><stop offset="0.8" stop-color="#8ad2ef"/><stop offset="1" stop-color="#8ed6f1"/></radialGradient></defs><title>RobomotivSiyahLogo</title><g class="cls-1"><g id="katman_1" data-name="katman 1"><path class="cls-2" d="M261.57,60.64l-2,8.41s-2.81,4.93-12.38,1.07c-10.78-4.35-45.63-6-62.8,5.76-14.87,10.22-13,31.69-13,31.69s-25.89,42.81,12.65,89.06c0,0,11.73,8.71,5.36,21.79l-4.35,8.37s-32.17-16.08-40.55-59,1.34-84.12,25.13-106.24S252,52.19,261.57,60.64Z" transform="translate(-8 -10.49)"/><path class="cls-3" d="M172.91,143.93l8.54-2.48s5.65-.44,7.84,9.65c2.46,11.36,20.64,41.14,40.05,48.71,16.81,6.56,29.37-6.2,29.37-6.2s54.1-3.49,70.7-61.37c0,0,4-15.15,15-16.67l9.37-1.1s4.77,35.65-26,66.68-70.34,46.16-102,38.9S171.28,162.35,172.91,143.93Z" transform="translate(-8 -10.49)"/><path class="cls-4" d="M285.64,170.68l-6.35-5.42s-3-4.59,4.53-11.13c8.49-7.36,25.29-36.61,22.69-56.58-2.25-17.28-17.38-18.84-17.38-18.84s-25.45-46.32-86.38-34.6c0,0-14.71,3.63-21.11-5l-5.29-7.44s28-20.6,68.61-8.92S318,61.11,326.6,91.32,297.16,166.12,285.64,170.68Z" transform="translate(-8 -10.49)"/><path class="cls-5" d="M174.81,64.13s39.74-21,86.87-3.36A89.91,89.91,0,0,0,137.91,90c-29,46.95-4.68,106,37.56,132.14a80.92,80.92,0,0,0,9.18,4.91s-67.14-45.84-27.45-125.88c0,0,76.81,33.52,64.25,114.91,0,0-42.44-19.29-48.54-72.12a89.92,89.92,0,0,0,89.92,89.92c55.19,0,93.55-48.84,92.64-101.44-.06-3.57-1.24-7-1.67-10.4,0,0-6.39,83.23-95.34,91.56,0,0-6.13-57.63,35.81-94.71a108.19,108.19,0,0,1,32.63-16.25s1.32,34.29-40.75,67.66C329.92,146.81,346.51,101.5,323,57.73,297,9.09,236-.74,189.85,24A81.43,81.43,0,0,0,181,29.52s75.78-30.77,125.08,40C306.09,69.49,235.25,119,174.81,64.13Z" transform="translate(-8 -10.49)"/><g class="cls-6"><path class="cls-7" d="M262.83,234.1a90.27,90.27,0,0,1-90.17-90.17l.49,0a93.19,93.19,0,0,0,26.48,55.71,86.21,86.21,0,0,0,21.62,16.07c6.33-41.76-11.39-70.59-27.4-87.43a129,129,0,0,0-36.53-26.78c-20.32,41.14-11.8,73-1.06,92.51a104.1,104.1,0,0,0,28.53,32.83l-.25.44a81.38,81.38,0,0,1-9.21-4.93,109.08,109.08,0,0,1-45.61-58.39c-8.38-25.9-5.55-52.22,8-74.09A90.14,90.14,0,0,1,261.81,60.56l-.22.45a110.37,110.37,0,0,0-39-7.06,113.09,113.09,0,0,0-47.38,10.24c18.79,16.94,40.49,25.53,64.5,25.53,34.9,0,63.29-18.48,66-20.29C279,31.22,244.14,23.19,219.58,23.19a117,117,0,0,0-39.41,6.71l-2,.79,1.71-1.22A122.17,122.17,0,0,1,191,22.77,105.25,105.25,0,0,1,240.6,10.49c35.93,0,66.83,17.61,82.65,47.12,11.43,21.31,13.78,43.46,6.8,64.08-6.77,20-22.31,37.29-43.78,48.81l-.27-.42c39.29-31.18,40.63-63.51,40.65-67.13a108.38,108.38,0,0,0-32.24,16.11c-21.58,19.09-30.15,43.76-33.53,61.09a126.62,126.62,0,0,0-2.19,33.14c45.67-4.36,69.1-29.55,80.71-49.94a117.54,117.54,0,0,0,14.42-43.73l.19-2.43.31,2.42c.42,3.26,1.4,12.75,1.4,16.34A103.06,103.06,0,0,1,330,203.69,89,89,0,0,1,262.83,234.1Zm-89.56-85.7a89.78,89.78,0,0,0,89.56,85.2c57.07,0,92.39-50.68,92.39-97.65,0-3-.68-10-1.14-14.15a120.43,120.43,0,0,1-14.24,41.8,97.35,97.35,0,0,1-28.77,32c-14.57,10.2-32.25,16.33-52.59,18.24l-.25,0,0-.25a125.9,125.9,0,0,1,2.18-33.52c3.39-17.41,12-42.2,33.71-61.4a108.94,108.94,0,0,1,32.73-16.3l.31-.1v.33c0,.08.28,8.77-4.61,21.42-4.36,11.25-13.77,28-34,44.65,20.06-11.43,34.58-28.08,41-47.14,6.93-20.48,4.6-42.5-6.76-63.68C307.07,28.51,276.34,11,240.6,11a104.79,104.79,0,0,0-49.39,12.22c-2.7,1.45-6.56,3.72-9.35,5.54a121.11,121.11,0,0,1,37.72-6.06c24.73,0,59.84,8.1,86.72,46.67l.15.2-.22.14c-.28.21-29.81,20.52-66.48,20.52-24.26,0-46.16-8.71-65.11-25.9l-.27-.24.32-.17c.2-.1,20.08-10.47,47.94-10.47a111.1,111.1,0,0,1,36.67,6.2A89.63,89.63,0,0,0,138.12,90.1c-13.45,21.75-16.26,47.91-7.92,73.68a108.56,108.56,0,0,0,45.4,58.12c2.26,1.4,4.58,2.68,6.9,3.82a106.83,106.83,0,0,1-26.68-31.5,90.14,90.14,0,0,1-11.33-39.63C143.7,137.35,147.9,119.33,157,101l.11-.21.22.09a128.94,128.94,0,0,1,36.92,27,105.23,105.23,0,0,1,22.72,35.77c6,16.18,7.63,33.81,4.76,52.42l0,.33-.31-.14c-.1-.05-10.78-5-22.05-16.3A93.29,93.29,0,0,1,173.27,148.4Z" transform="translate(-8 -10.49)"/></g><path d="M51,307.91a15.37,15.37,0,0,1-1.4,6.53,15.8,15.8,0,0,1-3.82,5.19,16.2,16.2,0,0,1-5.53,3.24L51,358.26a1.51,1.51,0,0,1-.32,1.11,1.63,1.63,0,0,1-1,.61H35.56a1.76,1.76,0,0,1-.93-.42,1.65,1.65,0,0,1-.54-.92L23.85,323.83v34.62a1.51,1.51,0,0,1-.45,1.08,1.47,1.47,0,0,1-1.08.45H9.52a1.47,1.47,0,0,1-1.08-.45A1.58,1.58,0,0,1,8,358.39V270.18a1.63,1.63,0,0,1,.44-1.12,1.53,1.53,0,0,1,1.15-.47H22.32a.49.49,0,0,1,.19.06H36.26a15.15,15.15,0,0,1,7.5,2.42,16.3,16.3,0,0,1,5.29,5.6,15.15,15.15,0,0,1,2,7.64ZM23.85,284.5v23.29H32.5a3.29,3.29,0,0,0,1.81-1,3.23,3.23,0,0,0,.87-1.91V287.36a3.39,3.39,0,0,0-.89-2,2.81,2.81,0,0,0-2-.86Z" transform="translate(-8 -10.49)"/><path d="M90,268.59a15.56,15.56,0,0,1,10.72,4.68,15.82,15.82,0,0,1,4.56,10.84v60.4a15.73,15.73,0,0,1-4.56,10.78A15.57,15.57,0,0,1,90,360H76.16a15.81,15.81,0,0,1-10.63-4.49A15.4,15.4,0,0,1,60.89,345V283.54a15.41,15.41,0,0,1,4.64-10.43,15.65,15.65,0,0,1,10.63-4.52H90Zm-.57,72.67v-54a3.15,3.15,0,0,0-1-2,2.94,2.94,0,0,0-2.07-.79H79.79a2.89,2.89,0,0,0-2.2.89,3,3,0,0,0-.86,2.16v53.53a2.91,2.91,0,0,0,.86,2.13,3.19,3.19,0,0,0,2.2.92h6.55a3.2,3.2,0,0,0,2.07-.86A3.12,3.12,0,0,0,89.4,341.26Z" transform="translate(-8 -10.49)"/><path d="M144.57,268.65a15.1,15.1,0,0,1,7.45,2.42,16.37,16.37,0,0,1,5.28,5.6,15,15,0,0,1,2,7.64v22.4a7.37,7.37,0,0,1-2.19,5.35,7.29,7.29,0,0,1-5.38,2.22,7.55,7.55,0,0,1,7.57,7.58v22.4a15.21,15.21,0,0,1-2,7.67,16.11,16.11,0,0,1-5.28,5.6,15.26,15.26,0,0,1-7.45,2.38l-1,.07H116.44a1.47,1.47,0,0,1-1.08-.45,1.54,1.54,0,0,1-.44-1.14V270.18a1.59,1.59,0,0,1,.44-1.12,1.45,1.45,0,0,1,1.08-.47h27.11Zm-1.14,34.81v-16.1a3,3,0,0,0-.86-2,2.85,2.85,0,0,0-1.95-.86h-9.86v21.89l9.8-.06a3,3,0,0,0,2-.86A2.91,2.91,0,0,0,143.43,303.46Zm0,37.8V325.1a3.27,3.27,0,0,0-1-2,2.87,2.87,0,0,0-2.07-.82h-9.61v21.89h10a3.34,3.34,0,0,0,1.84-.95A2.83,2.83,0,0,0,143.43,341.26Z" transform="translate(-8 -10.49)"/><path d="M198.15,268.59a15.54,15.54,0,0,1,10.73,4.68,15.72,15.72,0,0,1,4.55,10.84v60.4A15.79,15.79,0,0,1,198.15,360h-13.8a15.85,15.85,0,0,1-10.63-4.49A15.4,15.4,0,0,1,169.08,345V283.54a15.41,15.41,0,0,1,4.64-10.43,15.69,15.69,0,0,1,10.63-4.52h13.8Zm-.56,72.67v-54a3.15,3.15,0,0,0-1-2,2.93,2.93,0,0,0-2.07-.79H188a2.86,2.86,0,0,0-2.19.89,3,3,0,0,0-.87,2.16v53.53a2.88,2.88,0,0,0,.87,2.13,3.16,3.16,0,0,0,2.19.92h6.55a3.18,3.18,0,0,0,2.07-.86A3.12,3.12,0,0,0,197.59,341.26Z" transform="translate(-8 -10.49)"/><path d="M281.59,270.18v88.21a1.54,1.54,0,0,1-.44,1.14,1.46,1.46,0,0,1-1.08.45H267.28a1.44,1.44,0,0,1-1.08-.45,1.47,1.47,0,0,1-.45-1.08V304.29l-11.65,22.4a1.52,1.52,0,0,1-.73.73,1.42,1.42,0,0,1-1,.1,1.38,1.38,0,0,1-1-.1,1.54,1.54,0,0,1-.74-.73L239,304.29v54.16a1.47,1.47,0,0,1-.45,1.08,1.46,1.46,0,0,1-1.08.45H224.7a1.44,1.44,0,0,1-1.08-.45,1.54,1.54,0,0,1-.45-1.14V270.18a1.6,1.6,0,0,1,.45-1.12,1.42,1.42,0,0,1,1.08-.47h12.79a1.57,1.57,0,0,1,1.4.82l13.49,26.22,13.56-26.22a1.43,1.43,0,0,1,1.34-.82h12.79a1.44,1.44,0,0,1,1.08.47A1.59,1.59,0,0,1,281.59,270.18Z" transform="translate(-8 -10.49)"/><path d="M320.42,268.59a15.58,15.58,0,0,1,10.72,4.68,15.77,15.77,0,0,1,4.55,10.84v60.4A15.79,15.79,0,0,1,320.42,360H306.6A15.82,15.82,0,0,1,296,355.49,15.36,15.36,0,0,1,291.34,345V283.54A15.36,15.36,0,0,1,296,273.11a15.67,15.67,0,0,1,10.62-4.52h13.82Zm-.58,72.67v-54a3.09,3.09,0,0,0-1-2,2.93,2.93,0,0,0-2.07-.79h-6.56a2.88,2.88,0,0,0-2.19.89,3,3,0,0,0-.86,2.16v53.53a2.91,2.91,0,0,0,.86,2.13,3.18,3.18,0,0,0,2.19.92h6.56a3.18,3.18,0,0,0,2.07-.86A3.07,3.07,0,0,0,319.84,341.26Z" transform="translate(-8 -10.49)"/><path d="M388.89,268.59A1.53,1.53,0,0,1,390,269a1.38,1.38,0,0,1,.45,1.05V282.4a1.38,1.38,0,0,1-.45,1.05,1.65,1.65,0,0,1-1.15.41H375.91v74.53a1.62,1.62,0,0,1-1.59,1.59H361.6a2,2,0,0,1-1.12-.51,1.43,1.43,0,0,1-.48-1.08V283.86H346.89a1.5,1.5,0,0,1-1.08-.44,1.41,1.41,0,0,1-.45-1V270.05a1.42,1.42,0,0,1,.42-1,1.32,1.32,0,0,1,1.05-.45Z" transform="translate(-8 -10.49)"/><path d="M416.19,270.11v88.34a1.84,1.84,0,0,1-.47,1.08,1.45,1.45,0,0,1-1.11.45H401.88a1.52,1.52,0,0,1-1.59-1.59V270.18a1.55,1.55,0,0,1,.48-1.12,1.52,1.52,0,0,1,1.11-.47h12.73a1.44,1.44,0,0,1,1.08.45A1.65,1.65,0,0,1,416.19,270.11Z" transform="translate(-8 -10.49)"/><path d="M460.94,358.77a1.56,1.56,0,0,1-1.4,1.21H439.11a1.63,1.63,0,0,1-1-.42,1.77,1.77,0,0,1-.51-.85v-.2l-11.71-88.14a1.73,1.73,0,0,1,.29-1.15,1.49,1.49,0,0,1,1-.63h13.87a1.56,1.56,0,0,1,.95.41,1.75,1.75,0,0,1,.52.93l6.74,64.27,6.81-64.27a1.35,1.35,0,0,1,.48-.93,1.64,1.64,0,0,1,.92-.41h13.88a1.62,1.62,0,0,1,1,.6,1.47,1.47,0,0,1,.32,1.11Z" transform="translate(-8 -10.49)"/></g></g></svg>